<svg width="32" height="36" viewBox="0 0 32 36" fill="none" xmlns="http://www.w3.org/2000/svg">
<g clip-path="url(#clip0_1_44773)">
<path d="M30.4101 11.6524L19.326 0.568411C19.2319 0.474269 19.0418 0.378348 18.9477 0.284206C18.9477 0.284206 18.8535 0.284206 18.8535 0.190063C18.6635 0.0959204 18.5693 0.0959206 18.3793 0H18.0009H1.89531C0.852618 0 0 0.852617 0 1.89531V34.1047C0 35.1474 0.852618 36 1.89531 36H29.1791C30.2218 36 31.0744 35.1474 31.0744 34.1047L31.0726 12.9775C31.0726 12.6933 30.9785 12.4091 30.8825 12.1249C30.8825 12.1249 30.8825 12.0308 30.7884 12.0308C30.5983 11.9366 30.5042 11.8407 30.4101 11.6524ZM19.8944 6.53673L24.5377 11.18H19.8963L19.8944 6.53673ZM3.69472 32.2094V3.7888H16.0097V12.9775C16.0097 14.0202 16.8623 14.8728 17.905 14.8728H27.0937V32.2094H3.69472Z" fill="white"/>
<path d="M21.3156 24.6309H9.56719C8.52449 24.6309 7.67188 25.4835 7.67188 26.5262C7.67188 27.5689 8.52449 28.4215 9.56719 28.4215H21.3138C22.3564 28.4215 23.2091 27.5689 23.2091 26.5262C23.2091 25.4835 22.3565 24.6309 21.3156 24.6309Z" fill="white"/>
<path d="M21.3156 17.9043H9.56719C8.52449 17.9043 7.67188 18.7569 7.67188 19.7996C7.67188 20.8423 8.52449 21.6949 9.56719 21.6949H21.3138C22.3564 21.6949 23.2091 20.8423 23.2091 19.7996C23.2091 18.7569 22.3565 17.9043 21.3156 17.9043Z" fill="white"/>
</g>
<defs>
<clipPath id="clip0_1_44773">
<rect width="31.0744" height="36" fill="white"/>
</clipPath>
</defs>
</svg>
