<svg width="37" height="38" viewBox="0 0 37 38" fill="none" xmlns="http://www.w3.org/2000/svg">
<g clip-path="url(#clip0_1_27632)">
<path d="M21.2738 25.9063C22.6903 25.5191 24.3207 25.7291 25.5333 26.564C25.8275 26.7541 26.1593 26.9075 26.4917 27.0239L28.7755 15.809L20.7716 4.84897C17.3628 6.87702 12.2309 9.95613 9.12157 11.8029L6.11692 26.5339L6.37508 26.6492C7.55561 27.1494 9.04195 27.0603 10.0918 26.3706C10.5793 26.0438 11.1394 25.8294 11.7349 25.7269L12.699 20.841C12.9378 19.768 13.9881 19.0412 15.0612 19.28L20.354 20.3615C20.872 20.4806 21.3501 20.7848 21.6404 21.2346C21.9306 21.6845 22.0342 22.2057 21.9517 22.7614L21.2738 25.9063Z" fill="white"/>
<path d="M4.65654 12.4416C5.02383 12.7069 5.50636 12.7142 5.88139 12.4599C5.95618 12.4239 19.5541 4.31117 20.6402 3.65927C20.7156 3.58615 20.8269 3.58781 20.9383 3.58948C21.1238 3.59225 21.2712 3.6687 21.3803 3.81884L31.4942 17.6692C31.7479 18.0814 32.1911 18.2365 32.6376 18.1689C33.0847 18.0642 33.4232 17.7723 33.5047 17.2909C33.5462 16.9945 33.5135 16.697 33.3313 16.4715L21.6936 0.259397L4.64712 10.5854C4.4222 10.7306 4.26985 10.9882 4.19118 11.284C4.11028 11.7283 4.28927 12.1762 4.65654 12.4416Z" fill="white"/>
<path d="M20.1524 21.4346L14.8596 20.3531C14.3782 20.2717 13.8913 20.5614 13.8098 21.0428L12.8884 25.5583C13.7421 25.5711 14.5559 25.7688 15.2921 26.1882L15.9181 26.5317C17.0593 27.1799 18.544 27.2021 19.704 26.5883L20.0409 26.4077L20.842 22.4845C20.8825 22.2623 20.8492 22.0019 20.7035 21.8141C20.595 21.6269 20.3746 21.4751 20.1524 21.4346Z" fill="white"/>
<path d="M32.518 33.2145L29.8452 34.291C28.2862 34.922 26.4672 34.7735 25.0937 33.8455C23.943 33.066 22.3096 32.9917 21.0475 33.6599L20.4165 33.994C18.9688 34.7735 17.0756 34.7735 15.5909 33.994L14.9598 33.6599C13.6977 32.9918 12.0643 33.066 10.9136 33.8455C10.0969 34.4023 9.1318 34.6622 8.12952 34.6622C7.46136 34.6622 6.79316 34.5508 6.16211 34.291L3.48939 33.2145C2.45 32.8062 1.22501 32.8062 0.222727 33.2887L0 33.4001V36.6297C0.631048 36.3698 1.29925 36.2584 1.96741 36.2584C2.63557 36.2584 3.30377 36.3698 3.93482 36.6297L6.60754 37.7062C7.79542 38.1887 9.28026 38.0774 10.3197 37.3721C11.8045 36.3698 13.9204 36.2956 15.5169 37.1493L16.1479 37.4834C17.2987 38.1145 18.7835 38.1145 19.9343 37.4834L20.5653 37.1493C22.1616 36.2955 24.2403 36.3698 25.7625 37.3721C26.8019 38.0774 28.2497 38.1888 29.4746 37.7062L32.1474 36.6297C33.3724 36.1099 34.8201 36.1099 36.0451 36.6297V33.4001L35.8223 33.2887C34.783 32.8062 33.558 32.769 32.5186 33.2145L32.518 33.2145Z" fill="white"/>
<path d="M35.7846 27.8337C34.7823 27.3511 33.5573 27.3139 32.5179 27.7594L29.8452 28.8359C28.9543 29.2071 27.952 29.2814 27.024 29.1329C26.3558 29.0215 25.6876 28.7617 25.1308 28.3905C23.98 27.6109 22.3467 27.5367 21.0846 28.2049L20.4536 28.5389C19.0058 29.3185 17.1127 29.3185 15.6279 28.5389L14.9969 28.2049C13.7348 27.5367 12.1014 27.6109 10.9507 28.3905C9.57722 29.2814 7.75825 29.467 6.19918 28.8359L5.53103 28.5761H5.49391L3.5265 27.7594C2.4871 27.351 1.26212 27.351 0.259836 27.8336L0.0371094 27.945V31.1745C1.2621 30.692 2.70983 30.6548 3.93482 31.1745L6.60754 32.251C7.79542 32.7336 9.28026 32.6222 10.3197 31.9169C11.8045 30.9147 13.9204 30.8404 15.5169 31.6942L16.1479 32.0283C17.2987 32.6594 18.7835 32.6594 19.9343 32.0283L20.5653 31.6942C22.1615 30.8404 24.2403 30.9147 25.7625 31.9169C26.8019 32.6223 28.2497 32.7336 29.4746 32.251L32.1474 31.1745C33.3724 30.6548 34.8201 30.692 36.0451 31.1745V27.945L35.7846 27.8337Z" fill="white"/>
</g>
<defs>
<clipPath id="clip0_1_27632">
<rect width="36.0451" height="38" fill="white"/>
</clipPath>
</defs>
</svg>
