<svg width="36" height="36" viewBox="0 0 36 36" fill="none" xmlns="http://www.w3.org/2000/svg">
<g clip-path="url(#clip0_1_285)">
<path d="M18.0002 7.83887C16.8789 7.83887 15.9688 8.74898 15.9688 9.87029C15.9688 10.9938 16.8789 11.9039 18.0002 11.9039C19.1215 11.9039 20.0316 10.9938 20.0316 9.87246C20.0316 8.74898 19.1215 7.83887 18.0002 7.83887Z" fill="#8DADFF"/>
<path d="M17.9997 27.8696C17.0373 27.8696 16.2578 27.0901 16.2578 26.1278V15.3522C16.2578 14.3898 17.0373 13.6104 17.9997 13.6104C18.9621 13.6104 19.7415 14.3898 19.7415 15.3522V26.1278C19.7415 27.0901 18.9621 27.8696 17.9997 27.8696Z" fill="#8DADFF"/>
<path d="M17.9999 35.9996C8.07552 35.9996 0 27.9263 0 17.9996C0 14.1436 1.20185 10.4659 3.47719 7.36566C4.04111 6.59055 5.12975 6.42071 5.91144 6.99116C6.68655 7.55942 6.85422 8.65247 6.28594 9.42759C4.45262 11.925 3.48376 14.8905 3.48376 17.9998C3.48376 26.0034 9.99635 32.516 18 32.516C21.8625 32.516 25.4964 31.0158 28.2332 28.292C28.9169 27.6149 30.0164 27.617 30.6979 28.2985C31.375 28.9822 31.3707 30.0839 30.6914 30.7632C27.297 34.1403 22.7902 35.9996 17.9999 35.9996Z" fill="#8DADFF"/>
<path d="M32.5442 27.0098C32.2829 27.0098 32.0173 26.951 31.7691 26.8269C30.9068 26.3958 30.5584 25.3507 30.9896 24.4907C31.2814 23.905 31.5361 23.2997 31.7495 22.6748C32.0565 21.7625 33.0472 21.2748 33.9594 21.5862C34.8717 21.8953 35.3594 22.8838 35.0481 23.7961C34.789 24.5604 34.4711 25.3203 34.1075 26.0475C33.7983 26.6572 33.1843 27.0098 32.5442 27.0098Z" fill="#8DADFF"/>
<path d="M34.2575 19.7418C33.2951 19.7418 32.5156 18.9623 32.5156 17.9999C32.5156 9.99632 26.003 3.48372 17.9994 3.48372C15.2233 3.48372 12.5235 4.26976 10.1959 5.75683C9.38161 6.27721 8.30601 6.03553 7.78997 5.22774C7.27177 4.41562 7.5091 3.34002 8.32124 2.82181C11.2084 0.97544 14.5574 0 17.9993 0C27.9237 0 35.9992 8.0733 35.9992 17.9999C35.9992 18.9623 35.2177 19.7418 34.2575 19.7418Z" fill="#8DADFF"/>
</g>
<defs>
<clipPath id="clip0_1_285">
<rect width="35.9997" height="36" fill="white"/>
</clipPath>
</defs>
</svg>
