<svg width="36" height="36" viewBox="0 0 36 36" fill="none" xmlns="http://www.w3.org/2000/svg">
<g clip-path="url(#clip0_1_46749)">
<path d="M17.9997 7.83887C16.8784 7.83887 15.9683 8.74898 15.9683 9.87029C15.9683 10.9938 16.8784 11.9039 17.9997 11.9039C19.121 11.9039 20.0311 10.9938 20.0311 9.87246C20.0311 8.74898 19.121 7.83887 17.9997 7.83887Z" fill="white"/>
<path d="M17.9997 27.8696C17.0373 27.8696 16.2578 27.0901 16.2578 26.1278V15.3522C16.2578 14.3898 17.0373 13.6104 17.9997 13.6104C18.9621 13.6104 19.7415 14.3898 19.7415 15.3522V26.1278C19.7415 27.0901 18.9621 27.8696 17.9997 27.8696Z" fill="white"/>
<path d="M17.9999 35.9996C8.07553 35.9996 0 27.9263 0 17.9996C0 14.1436 1.20185 10.4659 3.47719 7.36566C4.04111 6.59055 5.12975 6.42071 5.91144 6.99116C6.68655 7.55942 6.85422 8.65247 6.28594 9.42759C4.45262 11.925 3.48376 14.8905 3.48376 17.9998C3.48376 26.0034 9.99635 32.516 18 32.516C21.8625 32.516 25.4964 31.0158 28.2332 28.292C28.9169 27.6149 30.0164 27.617 30.6979 28.2985C31.375 28.9822 31.3707 30.0839 30.6914 30.7632C27.297 34.1403 22.7902 35.9996 17.9999 35.9996Z" fill="white"/>
<path d="M32.5447 27.0098C32.2834 27.0098 32.0177 26.951 31.7695 26.8269C30.9073 26.3958 30.5589 25.3507 30.9901 24.4907C31.2818 23.905 31.5366 23.2997 31.75 22.6748C32.057 21.7625 33.0476 21.2748 33.9599 21.5862C34.8722 21.8953 35.3599 22.8838 35.0486 23.7961C34.7895 24.5604 34.4716 25.3203 34.108 26.0475C33.7988 26.6572 33.1848 27.0098 32.5447 27.0098Z" fill="white"/>
<path d="M34.258 19.7418C33.2956 19.7418 32.5161 18.9623 32.5161 17.9999C32.5161 9.99632 26.0035 3.48372 17.9999 3.48372C15.2238 3.48372 12.524 4.26976 10.1964 5.75683C9.3821 6.27721 8.3065 6.03553 7.79046 5.22774C7.27226 4.41562 7.50958 3.34002 8.32172 2.82181C11.2089 0.97544 14.5579 0 17.9998 0C27.9242 0 35.9997 8.0733 35.9997 17.9999C35.9997 18.9623 35.2182 19.7418 34.258 19.7418Z" fill="white"/>
</g>
<defs>
<clipPath id="clip0_1_46749">
<rect width="35.9997" height="36" fill="white"/>
</clipPath>
</defs>
</svg>
