<svg width="25" height="36" viewBox="0 0 25 36" fill="none" xmlns="http://www.w3.org/2000/svg">
<g clip-path="url(#clip0_1_280)">
<path fill-rule="evenodd" clip-rule="evenodd" d="M4.79297 0H19.286C21.9107 0 24.0789 2.15773 24.0789 4.76972V23.2808C24.0789 25.8927 21.9107 28.0505 19.286 28.0505L21.7966 36H19.0577L16.5471 28.0505H7.64592L5.13532 36H2.28236L4.79297 28.0505C2.16825 28.0505 0 25.8927 0 23.2808V4.76972C0 2.15773 2.16825 0 4.79297 0ZM5.0212 21.918C5.82003 21.918 6.50474 22.5994 6.50474 23.3943C6.50474 24.3028 5.82003 24.8707 5.0212 24.8707C4.22237 24.8707 3.53767 24.3028 3.53767 23.3943C3.53767 22.5994 4.22237 21.918 5.0212 21.918ZM19.6283 21.918C20.4272 21.918 21.1119 22.5994 21.1119 23.3943C21.1119 24.3028 20.4272 24.8707 19.6283 24.8707C18.8295 24.8707 18.1448 24.3028 18.1448 23.3943C18.1448 22.5994 18.8295 21.918 19.6283 21.918ZM4.22237 5.56467H19.8566C20.8836 5.56467 21.6825 6.35962 21.6825 7.26814V17.1483C21.6825 18.1703 20.8836 18.9653 19.8566 18.9653H4.22237C3.30943 18.9653 2.5106 18.1703 2.5106 17.1483V7.26814C2.5106 6.35962 3.30943 5.56467 4.22237 5.56467Z" fill="#8DADFF"/>
</g>
<defs>
<clipPath id="clip0_1_280">
<rect width="24.0789" height="36" fill="white"/>
</clipPath>
</defs>
</svg>
