<svg width="38" height="36" viewBox="0 0 38 36" fill="none" xmlns="http://www.w3.org/2000/svg">
<g clip-path="url(#clip0_1_271)">
<path d="M31.7964 6.62991C31.6126 5.19755 30.5717 0 25.0096 0C20.1892 0 18.844 4.53093 18.4734 6.82759C17.6651 5.67673 15.9754 4.09617 12.7862 4.09617C8.76425 4.09617 7.74763 7.98173 7.49407 9.65131C6.31662 8.92686 4.59267 8.85117 3.03963 9.49984C1.13682 10.3016 0 11.9958 0 14.0358C0 14.133 9.46107e-08 14.2252 0.00487921 14.319C0.108965 17.3418 2.5745 19.706 5.60926 19.706L31.1835 19.7043C31.9495 19.7043 32.6781 19.5562 33.353 19.2614C34.8899 18.5963 37.4709 16.8511 37.4709 12.7171C37.4709 7.55393 33.0993 6.75227 31.7966 6.63046L31.7964 6.62991Z" fill="white"/>
<path d="M9.79719 21.2675C9.66871 21.1918 9.50932 21.1951 9.38573 21.2757C8.87017 21.605 6.26316 23.286 5.78012 24.1339C5.50527 24.6146 5.43046 25.1794 5.57195 25.7194C5.71344 26.2594 6.05499 26.7105 6.52987 26.9888C6.85513 27.1781 7.20805 27.267 7.55773 27.267C8.27005 27.267 8.96451 26.8916 9.34347 26.2265C9.82651 25.3786 9.97285 22.2553 9.99238 21.6361C10.0005 21.483 9.92079 21.34 9.79719 21.2675Z" fill="white"/>
<path d="M19.6185 21.2675C19.49 21.1918 19.3306 21.1951 19.207 21.2757C18.6915 21.605 16.0844 23.286 15.6014 24.1339C15.3266 24.6146 15.2517 25.1794 15.3932 25.7194C15.5347 26.2594 15.8763 26.7105 16.3512 26.9888C16.6764 27.1781 17.0293 27.267 17.379 27.267C18.0913 27.267 18.7858 26.8916 19.1648 26.2265C19.6478 25.3786 19.7941 22.2553 19.8137 21.6361C19.8218 21.483 19.747 21.34 19.6185 21.2675Z" fill="white"/>
<path d="M27.2037 27.2607C27.916 27.2607 28.6105 26.8853 28.9894 26.2201C29.4724 25.3722 29.6188 22.249 29.6383 21.6298C29.6432 21.4816 29.5668 21.3384 29.4383 21.2626C29.3098 21.1869 29.1504 21.1902 29.0268 21.2709C28.5113 21.6001 25.9042 23.2811 25.4212 24.129C24.8504 25.1235 25.1886 26.4043 26.171 26.9789C26.4995 27.1683 26.854 27.2607 27.2037 27.2607Z" fill="white"/>
<path d="M9.69612 34.4523C9.83761 34.9923 10.1792 35.4435 10.654 35.7217C10.9793 35.911 11.3322 35.9999 11.6819 35.9999C12.3942 35.9999 13.0887 35.6246 13.4676 34.9594C13.9507 34.1115 14.097 30.9882 14.1165 30.369C14.1214 30.2209 14.045 30.0776 13.9165 30.0019C13.788 29.9261 13.6286 29.9294 13.505 30.0101C12.9895 30.3394 10.3825 32.0204 9.89944 32.8683C9.62947 33.3523 9.55463 33.9173 9.69612 34.4523Z" fill="white"/>
<path d="M20.4804 35.7198C20.8056 35.9091 21.1586 35.998 21.5082 35.998C22.2206 35.998 22.915 35.6226 23.294 34.9574C23.777 34.1095 23.9234 30.9863 23.9429 30.3671C23.9478 30.2189 23.8713 30.0757 23.7428 29.9999C23.6144 29.9242 23.455 29.9275 23.3314 30.0082C22.8158 30.3374 20.2088 32.0184 19.7258 32.8663C19.1598 33.8657 19.4964 35.1468 20.4804 35.7198Z" fill="white"/>
</g>
<defs>
<clipPath id="clip0_1_271">
<rect width="37.4709" height="36" fill="white"/>
</clipPath>
</defs>
</svg>
