<svg width="36" height="26" viewBox="0 0 36 26" fill="none" xmlns="http://www.w3.org/2000/svg">
<g clip-path="url(#clip0_1_28383)">
<path fill-rule="evenodd" clip-rule="evenodd" d="M29.732 5.17761C25.0006 9.88519 24.4212 9.72286 19.5932 5.01528C18.5311 4.0413 17.2758 4.0413 16.2136 5.17761C13.51 7.7749 11.3856 10.2099 8.29573 7.12557C5.20582 4.20363 4.81958 3.06731 1.53654 6.31392C0.764063 7.12557 -0.587775 3.55431 0.281263 2.74265C4.43334 -1.47794 5.4955 -0.503954 9.55101 3.55431C11.5788 5.50227 13.2203 3.22964 14.9584 1.44401C16.793 -0.341623 19.0139 -0.341623 20.8485 1.44401C24.8075 5.17761 24.6144 5.33994 28.3802 1.44401C31.1804 -1.31561 33.2082 0.307698 35.7187 2.74265C36.5878 3.55431 35.2359 7.2879 34.4635 6.47625C32.9185 4.85295 31.5667 3.22964 29.732 5.17761Z" fill="white"/>
<path fill-rule="evenodd" clip-rule="evenodd" d="M29.732 13.8055C25.0006 18.5131 24.4212 18.5131 19.5932 13.8055C18.5311 12.6692 17.2758 12.6692 16.2136 13.8055C13.51 16.5652 11.3856 18.8378 8.29573 15.9158C5.20582 12.8316 4.81958 11.6952 1.53654 15.1042C0.764063 15.7535 -0.587775 12.1822 0.281263 11.3706C4.43334 7.14999 5.4955 8.28631 9.55101 12.1822C11.5788 14.1302 13.2203 11.8576 14.9584 10.0719C16.793 8.28631 19.0139 8.28631 20.8485 10.0719C24.8075 13.9679 24.6144 13.9679 28.3802 10.0719C31.1804 7.31232 33.2082 8.93563 35.7187 11.3706C36.5878 12.1822 35.2359 15.9158 34.4635 15.1042C32.9185 13.4809 31.5667 11.8576 29.732 13.8055Z" fill="white"/>
<path fill-rule="evenodd" clip-rule="evenodd" d="M29.732 22.453C25.0006 27.1606 24.4212 27.1606 19.5932 22.453C18.5311 21.479 17.2758 21.479 16.2136 22.453C13.51 25.2126 11.3856 27.6476 8.29573 24.5633C5.20582 21.479 4.81958 20.3427 1.53654 23.7517C0.764063 24.5633 -0.587775 20.8297 0.281263 20.0181C4.43334 15.7975 5.4955 16.9338 9.55101 20.8297C11.5788 22.94 13.2203 20.5051 14.9584 18.8818C16.793 16.9338 19.0139 16.9338 20.8485 18.7194C24.8075 22.6154 24.6144 22.6154 28.3802 18.8818C31.1804 16.1221 33.2082 17.5831 35.7187 20.1804C36.5878 20.8297 35.2359 24.5633 34.4635 23.7517C32.9185 22.2907 31.5667 20.6674 29.732 22.453Z" fill="white"/>
</g>
<defs>
<clipPath id="clip0_1_28383">
<rect width="36" height="26" fill="white"/>
</clipPath>
</defs>
</svg>
